<svg width="327" height="167" viewBox="0 0 327 167" fill="none" xmlns="http://www.w3.org/2000/svg">
<g filter="url(#filter0_d_501_2)">
<path d="M15 143.8V14C15 11.4667 16.1333 9.46666 18.4 7.99999C20.6667 6.53333 23.3333 5.8 26.4 5.8H96.2C98.8667 5.8 100.867 6.93333 102.2 9.19999C103.533 11.3333 104.2 13.9333 104.2 17C104.2 20.2 103.467 22.9333 102 25.2C100.667 27.4667 98.7333 28.6 96.2 28.6H41V68.6H71.6C74.1333 68.6 76.0667 69.6 77.4 71.6C78.8667 73.6 79.6 76.0667 79.6 79C79.6 81.6667 78.8667 84 77.4 86C76.0667 88 74.1333 89 71.6 89H41V143.8C41 146.333 39.6667 148.333 37 149.8C34.4667 151.267 31.4667 152 28 152C24.4 152 21.3333 151.267 18.8 149.8C16.2667 148.333 15 146.333 15 143.8ZM113.163 23.2C113.163 19.7333 114.496 16.8 117.163 14.4C119.963 11.8667 123.363 10.6 127.363 10.6C131.229 10.6 134.496 11.8667 137.163 14.4C139.963 16.8 141.363 19.7333 141.363 23.2C141.363 26.5333 139.963 29.4667 137.163 32C134.496 34.5333 131.229 35.8 127.363 35.8C123.363 35.8 119.963 34.5333 117.163 32C114.496 29.4667 113.163 26.5333 113.163 23.2ZM114.563 143.8V65C114.563 62.6 115.763 60.6667 118.163 59.2C120.563 57.7333 123.629 57 127.363 57C131.096 57 134.163 57.7333 136.563 59.2C139.096 60.6667 140.363 62.6 140.363 65V143.8C140.363 145.8 139.029 147.667 136.363 149.4C133.829 151.133 130.829 152 127.363 152C123.763 152 120.696 151.2 118.163 149.6C115.763 147.867 114.563 145.933 114.563 143.8ZM154.466 142.8C154.466 139.333 155.932 135.867 158.866 132.4L198.266 78H163.666C161.532 78 159.732 77 158.266 75C156.799 72.8667 156.066 70.3333 156.066 67.4C156.066 64.4667 156.732 62 158.066 60C159.532 58 161.399 57 163.666 57H222.466C224.866 57 226.866 57.8 228.466 59.4C230.066 60.8667 230.866 63 230.866 65.8C230.866 69.5333 229.532 73.1333 226.866 76.6L187.266 131H226.466C228.599 131 230.399 132.067 231.866 134.2C233.332 136.2 234.066 138.667 234.066 141.6C234.066 144.533 233.332 147 231.866 149C230.532 151 228.732 152 226.466 152H163.266C160.332 152 158.132 151.133 156.666 149.4C155.199 147.533 154.466 145.333 154.466 142.8ZM241.77 142.8C241.77 139.333 243.237 135.867 246.17 132.4L285.57 78H250.97C248.837 78 247.037 77 245.57 75C244.104 72.8667 243.37 70.3333 243.37 67.4C243.37 64.4667 244.037 62 245.37 60C246.837 58 248.704 57 250.97 57H309.77C312.17 57 314.17 57.8 315.77 59.4C317.37 60.8667 318.17 63 318.17 65.8C318.17 69.5333 316.837 73.1333 314.17 76.6L274.57 131H313.77C315.904 131 317.704 132.067 319.17 134.2C320.637 136.2 321.37 138.667 321.37 141.6C321.37 144.533 320.637 147 319.17 149C317.837 151 316.037 152 313.77 152H250.57C247.637 152 245.437 151.133 243.97 149.4C242.504 147.533 241.77 145.333 241.77 142.8Z" fill="#FFDB7D"/>
</g>
<defs>
<filter id="filter0_d_501_2" x="0" y="0.800049" width="326.37" height="166.2" filterUnits="userSpaceOnUse" color-interpolation-filters="sRGB">
<feFlood flood-opacity="0" result="BackgroundImageFix"/>
<feColorMatrix in="SourceAlpha" type="matrix" values="0 0 0 0 0 0 0 0 0 0 0 0 0 0 0 0 0 0 127 0" result="hardAlpha"/>
<feOffset dx="-5" dy="5"/>
<feGaussianBlur stdDeviation="5"/>
<feComposite in2="hardAlpha" operator="out"/>
<feColorMatrix type="matrix" values="0 0 0 0 0 0 0 0 0 0 0 0 0 0 0 0 0 0 0.25 0"/>
<feBlend mode="normal" in2="BackgroundImageFix" result="effect1_dropShadow_501_2"/>
<feBlend mode="normal" in="SourceGraphic" in2="effect1_dropShadow_501_2" result="shape"/>
</filter>
</defs>
</svg>
