<svg width="1532" height="731" viewBox="0 0 1532 731" fill="none" xmlns="http://www.w3.org/2000/svg">
<path d="M2.38419e-06 690V40.9999C2.38419e-06 28.3333 5.66667 18.3333 17 11C28.3333 3.66665 41.6667 -6.19888e-06 57 -6.19888e-06H406C419.333 -6.19888e-06 429.333 5.66665 436 17C442.667 27.6666 446 40.6667 446 56C446 72 442.333 85.6667 435 97C428.333 108.333 418.667 114 406 114H130V314H283C295.667 314 305.333 319 312 329C319.333 339 323 351.333 323 366C323 379.333 319.333 391 312 401C305.333 411 295.667 416 283 416H130V690C130 702.667 123.333 712.667 110 720C97.3333 727.333 82.3333 731 65 731C47 731 31.6667 727.333 19 720C6.33334 712.667 2.38419e-06 702.667 2.38419e-06 690ZM490.813 86.9999C490.813 69.6666 497.479 55 510.813 43C524.813 30.3333 541.813 24 561.813 24C581.146 24 597.479 30.3333 610.813 43C624.813 55 631.813 69.6666 631.813 86.9999C631.813 103.667 624.813 118.333 610.813 131C597.479 143.667 581.146 150 561.813 150C541.813 150 524.813 143.667 510.813 131C497.479 118.333 490.813 103.667 490.813 86.9999ZM497.813 690V296C497.813 284 503.813 274.333 515.813 267C527.813 259.667 543.146 256 561.813 256C580.479 256 595.813 259.667 607.813 267C620.479 274.333 626.813 284 626.813 296V690C626.813 700 620.146 709.333 606.813 718C594.146 726.667 579.146 731 561.813 731C543.813 731 528.479 727 515.813 719C503.813 710.333 497.813 700.667 497.813 690ZM697.328 685C697.328 667.667 704.661 650.333 719.328 633L916.328 361H743.328C732.661 361 723.661 356 716.328 346C708.995 335.333 705.328 322.667 705.328 308C705.328 293.333 708.661 281 715.328 271C722.661 261 731.995 256 743.328 256H1037.33C1049.33 256 1059.33 260 1067.33 268C1075.33 275.333 1079.33 286 1079.33 300C1079.33 318.667 1072.66 336.667 1059.33 354L861.328 626H1057.33C1067.99 626 1076.99 631.333 1084.33 642C1091.66 652 1095.33 664.333 1095.33 679C1095.33 693.667 1091.66 706 1084.33 716C1077.66 726 1068.66 731 1057.33 731H741.328C726.661 731 715.661 726.667 708.328 718C700.995 708.667 697.328 697.667 697.328 685ZM1133.85 685C1133.85 667.667 1141.18 650.333 1155.85 633L1352.85 361H1179.85C1169.18 361 1160.18 356 1152.85 346C1145.52 335.333 1141.85 322.667 1141.85 308C1141.85 293.333 1145.18 281 1151.85 271C1159.18 261 1168.52 256 1179.85 256H1473.85C1485.85 256 1495.85 260 1503.85 268C1511.85 275.333 1515.85 286 1515.85 300C1515.85 318.667 1509.18 336.667 1495.85 354L1297.85 626H1493.85C1504.52 626 1513.52 631.333 1520.85 642C1528.18 652 1531.85 664.333 1531.85 679C1531.85 693.667 1528.18 706 1520.85 716C1514.18 726 1505.18 731 1493.85 731H1177.85C1163.18 731 1152.18 726.667 1144.85 718C1137.52 708.667 1133.85 697.667 1133.85 685Z" fill="#FFDB7D"/>
</svg>
